<?xml version="1.0" encoding="UTF-8"?>
<svg version="1.1" xmlns="http://www.w3.org/2000/svg" width="320" height="320">
<path d="M0 0 C105.6 0 211.2 0 320 0 C320 105.6 320 211.2 320 320 C214.4 320 108.8 320 0 320 C0 214.4 0 108.8 0 0 Z " fill="#F7FBFC" transform="translate(0,0)"/>
<path d="M0 0 C5.98591791 -0.31335678 11.25744614 0.45641675 16.94921875 2.27734375 C17.64192871 2.49733032 18.33463867 2.71731689 19.04833984 2.94396973 C26.86950662 5.52702227 34.17858777 9.04944174 41.53515625 12.72265625 C42.97410482 13.43338459 44.4131526 14.14391212 45.85229492 14.85424805 C49.42373768 16.62402247 52.98478856 18.41355409 56.54095459 20.21380615 C58.42204111 21.16543224 60.30573139 22.11170697 62.18994141 23.05712891 C93.86063718 39.06323899 93.86063718 39.06323899 99.53515625 55.22265625 C102.32790796 64.26673297 100.89958827 73.21937984 96.95703125 81.625 C92.60285657 89.57974221 86.4670925 94.05315391 77.82421875 96.68359375 C71.01069468 98.28814379 64.82918079 97.23382627 58.53515625 94.22265625 C53.27087944 90.80294887 50.31582678 86.78399732 47.53515625 81.22265625 C45.11557182 86.52889679 43.257463 91.93959844 41.42773438 97.47460938 C34.58856619 118.03887748 25.91528776 135.06597091 5.78515625 145.22265625 C3.70574083 146.23077791 1.62229422 147.23062154 -0.46484375 148.22265625 C-18.71575354 156.9062005 -24.85084386 168.6643014 -33.45605469 186.17333984 C-35.14234914 189.59898253 -36.84567692 193.01357654 -38.58984375 196.41015625 C-38.89019531 197.02165527 -39.19054687 197.6331543 -39.5 198.26318359 C-42.09126588 203.25248255 -45.40239927 206.69143401 -50.46484375 209.22265625 C-54.57234174 209.79662977 -56.23521694 209.36412995 -59.8125 207.16015625 C-61.06197896 206.1953194 -62.29956902 205.21496519 -63.52734375 204.22265625 C-64.9412819 203.12093414 -66.35535138 202.01938057 -67.76953125 200.91796875 C-68.52331055 200.32274414 -69.27708984 199.72751953 -70.05371094 199.11425781 C-73.48266523 196.42414665 -76.95701006 193.79530975 -80.42993164 191.16235352 C-83.9912851 188.46139699 -87.54272436 185.74756497 -91.09423828 183.03369141 C-93.16315848 181.45313013 -95.23370887 179.87473698 -97.3046875 178.296875 C-129.49416676 153.72315922 -129.49416676 153.72315922 -130.921875 145.6328125 C-130.28975907 142.29934644 -128.90878281 141.55493334 -126.15234375 139.66015625 C-120.69591719 135.92802996 -120.69591719 135.92802996 -118.03125 130.109375 C-118.02149101 124.61506583 -118.69468803 120.39675722 -122.46484375 116.22265625 C-125.01046331 114.30372548 -127.64638712 112.70713462 -130.46484375 111.22265625 C-128.20322539 104.90172289 -124.28542575 99.689142 -120.46484375 94.22265625 C-120.04074219 93.60648437 -119.61664063 92.9903125 -119.1796875 92.35546875 C-114.66689022 86.37075552 -107.52514672 81.61791251 -100.46484375 79.22265625 C-88.18923388 77.97428914 -78.83141753 85.18491671 -69.46484375 92.22265625 C-65.91650086 85.43145087 -62.92495467 78.57285792 -60.21484375 71.41015625 C-57.17622914 63.51966399 -54.04202841 55.68368232 -50.71484375 47.91015625 C-50.18648926 46.66818481 -50.18648926 46.66818481 -49.64746094 45.40112305 C-45.74056314 36.33964663 -41.69643964 27.92050999 -35.46484375 20.22265625 C-34.85898438 19.41441406 -34.253125 18.60617188 -33.62890625 17.7734375 C-26.47897863 9.34581523 -16.12224829 3.34066176 -5.52734375 0.41015625 C-3.68328313 0.29725458 -1.84002151 0.1662143 0 0 Z " fill="#F9FCFC" transform="translate(180.46484375,60.77734375)"/>
<path d="M0 0 C2.6220956 0.00313792 5.24303523 -0.02027974 7.86499023 -0.0456543 C43.96384314 -0.18025947 77.81851043 13.25187734 106.08959961 35.31567383 C107.02674805 36.02852539 107.96389648 36.74137695 108.92944336 37.47583008 C118.62550857 44.99065411 126.51976144 53.70096327 134.08959961 63.31567383 C134.50918945 63.84241699 134.9287793 64.36916016 135.36108398 64.91186523 C150.26915828 83.64723664 150.26915828 83.64723664 150.77709961 90.62817383 C149.94788971 95.07575422 148.60321078 96.55497933 145.08959961 99.31567383 C142.81711723 100.45191502 141.30657197 100.58014226 138.77709961 100.69067383 C138.0178418 100.7396582 137.25858398 100.78864258 136.47631836 100.83911133 C130.34920186 99.49535747 126.79320091 92.21381035 123.46459961 87.31567383 C99.44886455 52.83116243 66.54618979 32.46206228 25.60522461 23.55786133 C-9.54350068 17.47113085 -45.29360773 26.81295873 -74.22290039 47.19067383 C-103.66185861 68.64102428 -123.9597214 100.17528335 -130.60180664 136.05004883 C-135.91636607 172.47150503 -128.52111185 208.42878098 -106.78662109 238.34716797 C-102.24074656 244.38760059 -97.15428465 249.88139135 -91.91040039 255.31567383 C-91.23364258 256.04399414 -90.55688477 256.77231445 -89.85961914 257.52270508 C-68.51954061 279.92316018 -35.11318173 294.50465434 -4.27368164 295.51879883 C14.14775255 295.80512347 31.77335326 293.76690854 49.08959961 287.31567383 C49.78005371 287.06301758 50.47050781 286.81036133 51.18188477 286.55004883 C85.12721918 273.94509189 111.72781778 249.10746597 127.09643555 216.29077148 C129.72191218 210.45452904 131.91778351 204.50198147 133.96459961 198.44067383 C134.25077148 197.59778809 134.53694336 196.75490234 134.83178711 195.88647461 C139.44888703 181.67723863 139.43122381 167.91095645 139.39501953 153.10839844 C139.3923996 150.30578801 139.42048187 147.50478728 139.45288086 144.70239258 C139.4426741 143.84916916 139.43246735 142.99594574 139.42195129 142.11686707 C139.49132699 137.88251262 139.79102204 135.14652582 142.50439453 131.79150391 C145.27972621 129.13359111 146.10083825 128.42803307 149.83959961 128.00317383 C153.97556106 128.40086243 155.89873698 129.69207566 159.08959961 132.31567383 C162.68538837 136.83051063 162.54222186 140.98434213 162.52319336 146.50708008 C162.52843521 147.4070018 162.53367706 148.30692352 162.53907776 149.2341156 C162.54549639 151.1446734 162.54416301 153.05527072 162.53564453 154.96582031 C162.52727929 157.81693291 162.5556584 160.66593857 162.58764648 163.5168457 C162.6550534 180.46406798 160.22579728 196.55290493 153.96459961 212.37817383 C153.57771973 213.3771167 153.19083984 214.37605957 152.79223633 215.40527344 C144.84515259 235.40994655 134.00310203 252.77474251 119.08959961 268.31567383 C118.63423828 268.80745117 118.17887695 269.29922852 117.7097168 269.8059082 C109.09839286 279.09722388 99.69144261 286.41096609 89.08959961 293.31567383 C88.09573242 293.97180664 87.10186523 294.62793945 86.07788086 295.30395508 C73.84217264 302.89672694 59.92778042 308.44225888 46.08959961 312.31567383 C45.41977051 312.51032227 44.74994141 312.7049707 44.05981445 312.90551758 C42.24059482 313.43192201 40.41515018 313.93666313 38.58959961 314.44067383 C36.81069336 314.93954102 36.81069336 314.93954102 34.99584961 315.44848633 C10.52374471 321.35025036 -19.20908576 318.83385657 -42.91040039 311.31567383 C-43.67884277 311.08074219 -44.44728516 310.84581055 -45.23901367 310.60375977 C-67.09383675 303.76510641 -87.34682297 290.95563169 -103.91040039 275.31567383 C-105.13334859 274.28739902 -106.36200272 273.26584769 -107.59790039 272.25317383 C-120.99133333 260.75533117 -130.26359204 244.61760379 -138.73461914 229.3894043 C-139.59921622 227.86451069 -140.50621204 226.36346213 -141.43603516 224.87744141 C-143.9258978 220.55120714 -145.28348975 215.85120404 -146.84790039 211.12817383 C-147.18241211 210.15686523 -147.51692383 209.18555664 -147.86157227 208.18481445 C-153.28378308 191.93907684 -155.64327896 176.73212738 -155.47290039 159.62817383 C-155.46864044 158.70946503 -155.46438049 157.79075623 -155.45999146 156.84420776 C-155.36759788 142.49765194 -154.36028589 129.04715017 -149.91040039 115.31567383 C-149.66402832 114.51339355 -149.41765625 113.71111328 -149.16381836 112.88452148 C-142.15256056 90.44035968 -130.30274817 69.86137906 -114.19946289 52.76098633 C-112.24069805 50.66851741 -110.41642123 48.52835682 -108.59790039 46.31567383 C-99.92502389 36.40670979 -89.08313228 29.08624638 -77.91040039 22.31567383 C-76.93586914 21.69950195 -75.96133789 21.08333008 -74.95727539 20.44848633 C-60.06584245 11.29391689 -43.79559842 6.3984702 -26.91040039 2.31567383 C-26.1858667 2.11772217 -25.46133301 1.91977051 -24.71484375 1.71582031 C-16.60282108 -0.26912088 -8.29890354 -0.02069934 0 0 Z " fill="#1A425F" transform="translate(154.910400390625,0.684326171875)"/>
<path d="M0 0 C5.98591791 -0.31335678 11.25744614 0.45641675 16.94921875 2.27734375 C17.64192871 2.49733032 18.33463867 2.71731689 19.04833984 2.94396973 C26.86950662 5.52702227 34.17858777 9.04944174 41.53515625 12.72265625 C42.97410482 13.43338459 44.4131526 14.14391212 45.85229492 14.85424805 C49.42373768 16.62402247 52.98478856 18.41355409 56.54095459 20.21380615 C58.42204111 21.16543224 60.30573139 22.11170697 62.18994141 23.05712891 C93.86063718 39.06323899 93.86063718 39.06323899 99.53515625 55.22265625 C102.32790796 64.26673297 100.89958827 73.21937984 96.95703125 81.625 C92.60285657 89.57974221 86.4670925 94.05315391 77.82421875 96.68359375 C71.01069468 98.28814379 64.82918079 97.23382627 58.53515625 94.22265625 C53.27087944 90.80294887 50.31582678 86.78399732 47.53515625 81.22265625 C45.11557182 86.52889679 43.257463 91.93959844 41.42773438 97.47460938 C34.58856619 118.03887748 25.91528776 135.06597091 5.78515625 145.22265625 C3.70574083 146.23077791 1.62229422 147.23062154 -0.46484375 148.22265625 C-18.71575354 156.9062005 -24.85084386 168.6643014 -33.45605469 186.17333984 C-35.14234914 189.59898253 -36.84567692 193.01357654 -38.58984375 196.41015625 C-38.89019531 197.02165527 -39.19054687 197.6331543 -39.5 198.26318359 C-42.09126588 203.25248255 -45.40239927 206.69143401 -50.46484375 209.22265625 C-54.57234174 209.79662977 -56.23521694 209.36412995 -59.8125 207.16015625 C-61.06197896 206.1953194 -62.29956902 205.21496519 -63.52734375 204.22265625 C-64.9412819 203.12093414 -66.35535138 202.01938057 -67.76953125 200.91796875 C-68.52331055 200.32274414 -69.27708984 199.72751953 -70.05371094 199.11425781 C-73.48266523 196.42414665 -76.95701006 193.79530975 -80.42993164 191.16235352 C-83.9912851 188.46139699 -87.54272436 185.74756497 -91.09423828 183.03369141 C-93.16315848 181.45313013 -95.23370887 179.87473698 -97.3046875 178.296875 C-129.49416676 153.72315922 -129.49416676 153.72315922 -130.921875 145.6328125 C-130.28975907 142.29934644 -128.90878281 141.55493334 -126.15234375 139.66015625 C-120.69591719 135.92802996 -120.69591719 135.92802996 -118.03125 130.109375 C-118.02149101 124.61506583 -118.69468803 120.39675722 -122.46484375 116.22265625 C-125.01046331 114.30372548 -127.64638712 112.70713462 -130.46484375 111.22265625 C-128.20322539 104.90172289 -124.28542575 99.689142 -120.46484375 94.22265625 C-120.04074219 93.60648437 -119.61664063 92.9903125 -119.1796875 92.35546875 C-114.66689022 86.37075552 -107.52514672 81.61791251 -100.46484375 79.22265625 C-88.18923388 77.97428914 -78.83141753 85.18491671 -69.46484375 92.22265625 C-65.91650086 85.43145087 -62.92495467 78.57285792 -60.21484375 71.41015625 C-57.17622914 63.51966399 -54.04202841 55.68368232 -50.71484375 47.91015625 C-50.18648926 46.66818481 -50.18648926 46.66818481 -49.64746094 45.40112305 C-45.74056314 36.33964663 -41.69643964 27.92050999 -35.46484375 20.22265625 C-34.85898438 19.41441406 -34.253125 18.60617188 -33.62890625 17.7734375 C-26.47897863 9.34581523 -16.12224829 3.34066176 -5.52734375 0.41015625 C-3.68328313 0.29725458 -1.84002151 0.1662143 0 0 Z M-19.46484375 23.22265625 C-20.13257813 23.74085937 -20.8003125 24.2590625 -21.48828125 24.79296875 C-33.91041849 35.74212529 -39.01632773 54.16060701 -44.46484375 69.22265625 C-49.15006003 81.97606976 -54.48137484 94.57348015 -60.7421875 106.640625 C-62.6815447 110.01080134 -62.6815447 110.01080134 -62.46484375 113.22265625 C-67.13307229 111.93086241 -70.11729662 110.18550793 -73.77734375 107.03515625 C-74.7209375 106.23722656 -75.66453125 105.43929687 -76.63671875 104.6171875 C-78.03664063 103.43189453 -78.03664063 103.43189453 -79.46484375 102.22265625 C-81.14400205 100.87883282 -82.83072993 99.54437315 -84.52734375 98.22265625 C-85.24019531 97.66578125 -85.95304687 97.10890625 -86.6875 96.53515625 C-90.30643529 93.86271173 -93.37215732 93.71024522 -97.79296875 93.7421875 C-104.27429061 94.90768836 -108.77401287 101.14776379 -112.46484375 106.22265625 C-111.11613625 109.18069106 -109.56915826 111.43061992 -107.40234375 113.84765625 C-103.41144251 118.31668503 -103.12102823 121.23985264 -103.18359375 127.19921875 C-103.9114129 135.02327461 -107.02866684 139.78647934 -112.46484375 145.22265625 C-112.41504791 147.98282125 -112.41504791 147.98282125 -111.46484375 150.22265625 C-108.17542937 151.59476045 -108.17542937 151.59476045 -103.46484375 150.22265625 C-101.81484375 153.52265625 -100.16484375 156.82265625 -98.46484375 160.22265625 C-94.99984375 159.23265625 -94.99984375 159.23265625 -91.46484375 158.22265625 C-89.81484375 162.18265625 -88.16484375 166.14265625 -86.46484375 170.22265625 C-83.49484375 169.23265625 -83.49484375 169.23265625 -80.46484375 168.22265625 C-78.81484375 171.52265625 -77.16484375 174.82265625 -75.46484375 178.22265625 C-73.15484375 177.23265625 -70.84484375 176.24265625 -68.46484375 175.22265625 C-68.06652344 176.28806641 -68.06652344 176.28806641 -67.66015625 177.375 C-67.13035156 178.75365234 -67.13035156 178.75365234 -66.58984375 180.16015625 C-66.24179688 181.07667969 -65.89375 181.99320313 -65.53515625 182.9375 C-64.68293515 185.37206681 -64.68293515 185.37206681 -62.46484375 186.22265625 C-59.8409724 184.83172733 -59.8409724 184.83172733 -57.46484375 183.22265625 C-57.27148438 183.86074219 -57.078125 184.49882812 -56.87890625 185.15625 C-56.61851563 185.98253906 -56.358125 186.80882812 -56.08984375 187.66015625 C-55.83460937 188.48386719 -55.579375 189.30757812 -55.31640625 190.15625 C-54.65602148 192.40063641 -54.65602148 192.40063641 -52.46484375 193.22265625 C-52.15369629 192.5898877 -51.84254883 191.95711914 -51.52197266 191.30517578 C-28.53852136 144.67196395 -28.53852136 144.67196395 0.7421875 130.69140625 C13.04346265 124.79586424 20.410307 115.56443503 25.07641602 102.76757812 C26.28486843 99.26960759 27.41957909 95.75112335 28.53515625 92.22265625 C29.07410591 90.61757472 29.61512697 89.01318356 30.16015625 87.41015625 C30.91747642 85.14252327 31.63885203 82.87390825 32.3203125 80.58203125 C37.28339777 64.51108849 44.29758237 49.6143636 59.53515625 41.22265625 C63.09765625 39.84765625 63.09765625 39.84765625 65.53515625 39.22265625 C63.1778755 36.8653755 61.01958949 35.92995928 57.98828125 34.53515625 C56.2714917 33.74081177 56.2714917 33.74081177 54.52001953 32.93041992 C53.27537253 32.36049351 52.03041081 31.79125397 50.78515625 31.22265625 C48.87017267 30.34726945 46.95521923 29.47181755 45.04043579 28.59599304 C43.74657897 28.00418185 42.45244866 27.41296824 41.15805054 26.82234192 C37.16402443 24.9930462 33.21211308 23.09523029 29.27734375 21.140625 C11.87536036 12.59818339 -3.29844352 10.4658968 -19.46484375 23.22265625 Z " fill="#153E5B" transform="translate(180.46484375,60.77734375)"/>
<path d="M0 0 C2.26722339 2.14052562 3.99390612 4.3674862 5.75 6.9375 C9.24247606 11.65190937 12.7666001 14.00510772 18.4375 15.75 C27.59938407 16.64384235 35.20257685 15.1982821 43 10 C44.39308599 38.05520391 34.8033904 67.66111329 15.98974609 88.7121582 C7.31167927 98.13566472 -1.72471495 105.77690998 -13 112 C-13.60972656 112.34305176 -14.21945313 112.68610352 -14.84765625 113.03955078 C-31.00524593 122.02658795 -47.41208953 126.18751804 -65.88549805 126.18530273 C-67.92843436 126.18749029 -69.97083071 126.20568735 -72.01367188 126.22460938 C-73.96950195 126.22750977 -73.96950195 126.22750977 -75.96484375 126.23046875 C-77.1468335 126.23457764 -78.32882324 126.23868652 -79.54663086 126.24291992 C-83.34369792 125.9758233 -86.38918663 125.16289219 -90 124 C-87.36117754 118.65250391 -84.68740824 113.32323093 -82 108 C-81.52353027 107.05286133 -81.04706055 106.10572266 -80.55615234 105.12988281 C-79.02732928 102.10183635 -77.48394658 99.08157884 -75.9375 96.0625 C-75.45571289 95.104646 -74.97392578 94.14679199 -74.47753906 93.15991211 C-67.14049974 78.93173771 -58.98279186 72.16520697 -44.59545898 65.6027832 C-28.9084872 58.41991572 -18.40091975 48.90804775 -11.59765625 32.6484375 C-10.32787808 29.11902213 -9.15723746 25.56784074 -8 22 C-6.95384224 18.97335041 -5.88281628 15.95567508 -4.8125 12.9375 C-4.56226074 12.22303711 -4.31202148 11.50857422 -4.05419922 10.77246094 C-2.78166705 7.14673371 -1.46174294 3.55390583 0 0 Z " fill="#83BFDF" transform="translate(227,141)"/>
<path d="M0 0 C1.11503906 0.49113281 2.23007813 0.98226562 3.37890625 1.48828125 C10.20731444 4.68504442 16.28870768 8.38413281 22.375 12.8125 C23.03612793 13.29283691 23.69725586 13.77317383 24.37841797 14.26806641 C25.96161868 15.4572598 27.48723147 16.72240977 29 18 C29 18.66 29 19.32 29 20 C24.59990924 18.68559589 20.62773433 16.90724301 16.52954102 14.87670898 C2.16096749 7.77047265 -13.5691213 0.31370014 -29.8828125 5.1875 C-42.22690907 9.92471787 -52.77023905 16.77535766 -60 28 C-60.36182373 28.53181885 -60.72364746 29.0636377 -61.09643555 29.61157227 C-64.91383661 35.40305312 -67.54800305 41.5398964 -70.1875 47.9375 C-70.65873291 49.06470459 -71.12996582 50.19190918 -71.61547852 51.35327148 C-75.3857865 60.41119886 -79.05020714 69.511906 -82.65112305 78.63842773 C-84.96496309 84.49159871 -87.38789948 90.27336897 -90 96 C-90.78375 95.46375 -91.5675 94.9275 -92.375 94.375 C-106.00824503 84.7431833 -106.00824503 84.7431833 -122 83 C-126.22935462 84.64509919 -130.42791343 86.42791343 -133.66796875 89.66796875 C-134.10753906 90.10753906 -134.54710937 90.54710937 -135 91 C-135.66 91 -136.32 91 -137 91 C-137.26167969 91.57234375 -137.52335937 92.1446875 -137.79296875 92.734375 C-139.0848863 95.15933351 -140.58264524 97.11740744 -142.3125 99.25 C-145.19420056 102.87769403 -147.70565243 106.57615794 -150.0546875 110.56640625 C-150.36664063 111.03949219 -150.67859375 111.51257813 -151 112 C-151.33 112 -151.66 112 -152 112 C-153.39770814 77.72389565 -145.18024847 50.62374294 -122.0625 25.0625 C-91.0247324 -7.91544386 -41.41827298 -18.64605732 0 0 Z " fill="#85C0E0" transform="translate(202,58)"/>
<path d="M0 0 C3.98815632 1.95165096 6.51353476 4.36006228 8.48828125 8.34375 C9.71739757 12.0529176 9.84820406 15.50121675 9.1484375 19.3359375 C6.46390594 24.41737224 2.73492169 29.3642372 -2.8515625 31.3359375 C-6.52346806 31.8046914 -8.4009238 31.56125685 -11.7265625 29.8984375 C-14.91303997 26.05592055 -14.21149843 23.23106616 -13.8515625 18.3359375 C-20.2865625 18.8309375 -20.2865625 18.8309375 -26.8515625 19.3359375 C-25.2611577 11.38391351 -19.35255075 5.74928562 -12.7265625 1.2109375 C-8.42079464 -1.18494521 -4.74385215 -1.70138157 0 0 Z " fill="#7FBBD9" transform="translate(257.8515625,112.6640625)"/>
<path d="M0 0 C5.97942979 1.57095036 10.7676352 4.7321187 15.9375 8 C17.32279907 8.8669751 17.32279907 8.8669751 18.73608398 9.75146484 C38.02824989 21.87987889 38.02824989 21.87987889 46 28 C45.34 29.98 44.68 31.96 44 34 C42.0390625 34.82421875 42.0390625 34.82421875 39 35 C35.90967898 33.60991509 33.17719427 31.70607541 30.375 29.8125 C28.68391787 28.705234 26.99250135 27.59847856 25.30078125 26.4921875 C24.43146973 25.91694336 23.5621582 25.34169922 22.66650391 24.74902344 C18.34062139 21.91157404 13.94865823 19.18044735 9.5625 16.4375 C8.00001056 15.45909075 6.43872459 14.47875577 4.87890625 13.49609375 C4.2247876 13.08544678 3.57066895 12.6747998 2.89672852 12.25170898 C0.86664693 10.91199624 -1.06825335 9.47718646 -3 8 C-2.25 2.25 -2.25 2.25 0 0 Z " fill="#24445B" transform="translate(85,192)"/>
<path d="M0 0 C4.875 0.875 4.875 0.875 6 2 C6.5 4.125 6.5 4.125 6 7 C4.53040741 8.79229244 2.93650079 10.31339952 1.21484375 11.86328125 C-0.73437139 13.743741 -2.46977096 15.6644749 -4.234375 17.71484375 C-8.02724082 22.09495942 -12.06699896 26.17979615 -16.1875 30.25 C-16.88552734 30.94351563 -17.58355469 31.63703125 -18.30273438 32.3515625 C-19.63032698 33.6703129 -20.9602523 34.98672089 -22.29296875 36.30029297 C-23.66138734 37.6628402 -24.99828766 39.05701046 -26.32421875 40.4609375 C-28 42 -28 42 -30.625 42.375 C-33 42 -33 42 -35 40 C-35.02745537 36.34318747 -33.70517229 34.43128569 -31.30371094 31.86547852 C-30.12396191 30.69310792 -28.93345218 29.53150093 -27.734375 28.37890625 C-27.10396301 27.75652573 -26.47355103 27.1341452 -25.82403564 26.49290466 C-23.80860018 24.50642696 -21.78003511 22.53404584 -19.75 20.5625 C-17.73685112 18.59204551 -15.72658933 16.61873324 -13.71881104 14.64280701 C-12.47033697 13.41579239 -11.21836692 12.19232113 -9.96234131 10.97303772 C-6.39199808 7.48305121 -3.13141422 3.88995326 0 0 Z " fill="#F6FCFD" transform="translate(116,77)"/>
<path d="M0 0 C6.03298281 1.6545304 11.2025999 4.71836243 16.625 7.75 C23.67944587 11.66240791 30.71393416 15.45673733 38.05078125 18.81640625 C40 20 40 20 41 23 C39.5625 26.1875 39.5625 26.1875 38 29 C32.14139028 27.58020377 27.22542132 25.23790104 21.9375 22.375 C20.6992749 21.71056885 20.6992749 21.71056885 19.43603516 21.03271484 C17.75885547 20.1291193 16.08370005 19.22175586 14.41064453 18.31054688 C12.17494811 17.09511054 9.93025372 15.89812339 7.68359375 14.703125 C6.41323896 14.01192811 5.14365485 13.3193121 3.875 12.625 C2.75867188 12.01914063 1.64234375 11.41328125 0.4921875 10.7890625 C-2 9 -2 9 -2.95703125 6.9453125 C-3.02135182 4.03334483 -1.62216621 2.33591935 0 0 Z " fill="#1F4662" transform="translate(147,141)"/>
<path d="M0 0 C4.7553114 0.5691807 8.39857267 1.93960813 12.68359375 4.0546875 C13.30218765 4.35690216 13.92078156 4.65911682 14.55812073 4.9704895 C16.52158065 5.93139777 18.47965158 6.90271707 20.4375 7.875 C22.39276237 8.83799997 24.34909656 9.79876854 26.3061676 10.75808716 C28.08550686 11.63153812 29.86205247 12.51067342 31.63842773 13.39013672 C35.05888227 15.02819883 38.50466604 16.53035518 42 18 C41.37240135 20.92879371 40.41377341 23.36095629 39 26 C33.56345785 25.50386312 29.44562956 24.02357007 24.625 21.4375 C20.20250508 19.12281006 15.78878774 16.87055083 11.21484375 14.8671875 C10.43737793 14.52244385 9.65991211 14.1777002 8.85888672 13.82250977 C7.3525236 13.15997264 5.83988921 12.51147775 4.32080078 11.87866211 C-0.75541365 9.61517174 -0.75541365 9.61517174 -2.03125 6.40625 C-1.99635252 3.71914399 -1.42105196 2.25696488 0 0 Z " fill="#1E435B" transform="translate(156,120)"/>
<path d="M0 0 C2.43725586 0.32543945 2.43725586 0.32543945 4.43725586 2.32543945 C4.39482606 6.62250617 2.42741789 8.78343353 -0.53755188 11.7277832 C-1.08856064 12.25500977 -1.6395694 12.78223633 -2.20727539 13.32543945 C-3.05656868 14.16268555 -3.05656868 14.16268555 -3.92301941 15.0168457 C-5.73119936 16.79608993 -7.55246552 18.56116502 -9.37524414 20.32543945 C-11.18468178 22.09220281 -12.99123341 23.86182056 -14.79533386 25.6340332 C-15.91692333 26.73413628 -17.04200327 27.83069581 -18.1710968 28.9230957 C-20.55948796 31.25149503 -22.69636697 33.49812218 -24.74511719 36.14575195 C-26.56274414 38.32543945 -26.56274414 38.32543945 -29.68774414 39.20043945 C-32.56274414 39.32543945 -32.56274414 39.32543945 -34.56274414 38.32543945 C-34.88916016 36.18017578 -34.88916016 36.18017578 -34.56274414 33.32543945 C-32.87879347 31.21603003 -31.28427767 29.48664048 -29.34008789 27.6496582 C-28.80178848 27.12080521 -28.26348907 26.59195221 -27.70887756 26.04707336 C-25.98408573 24.35683184 -24.24312941 22.68449968 -22.50024414 21.01293945 C-20.78990805 19.35285763 -19.08316881 17.68919027 -17.37832642 16.02346802 C-16.27563924 14.94692113 -15.17017387 13.87321209 -14.06185913 12.80245972 C-10.45404226 9.29307733 -7.16842373 5.65050687 -4.12744141 1.62939453 C-2.56274414 0.32543945 -2.56274414 0.32543945 0 0 Z " fill="#F5FDFE" transform="translate(238.562744140625,190.674560546875)"/>
<path d="M0 0 C4.99584217 0.57124312 9.10255815 2.21462909 13.5859375 4.37890625 C14.28772125 4.71043198 14.989505 5.0419577 15.71255493 5.38352966 C17.93676019 6.43621063 20.15587447 7.49915899 22.375 8.5625 C23.88899762 9.28128454 25.40331748 9.99939076 26.91796875 10.71679688 C30.61575421 12.47003718 34.30901166 14.23249785 38 16 C37.31911019 18.91985181 36.41898766 21.35122304 35 24 C28.70682387 23.55409314 24.2245605 21.34288385 18.75 18.3125 C17.91678223 17.86060303 17.08356445 17.40870605 16.22509766 16.94311523 C14.5707066 16.04491166 12.91845648 15.14275158 11.26855469 14.23632812 C9.30814905 13.16793659 7.33762065 12.12896775 5.3515625 11.109375 C4.36929688 10.59890625 3.38703125 10.0884375 2.375 9.5625 C1.11816406 8.91474609 1.11816406 8.91474609 -0.1640625 8.25390625 C-2 7 -2 7 -3 4 C-1.5625 1.8125 -1.5625 1.8125 0 0 Z " fill="#1E4462" transform="translate(173,88)"/>
<path d="M0 0 C5.67259254 2.30749527 9.18001243 4.3280024 12.140625 9.79296875 C13.65124222 13.67250844 14.14930067 16.95642386 13 21 C10.97308902 24.01528094 8.64778181 26.52108182 6 29 C1.2159707 20.57099599 0.56299784 9.51272206 0 0 Z " fill="#83C2E3" transform="translate(50,172)"/>
<path d="M0 0 C2.47986225 1.0697445 3.93038182 2.2027 6 4 C6 4.33 6 4.66 6 5 C4.783125 5.20625 3.56625 5.4125 2.3125 5.625 C-4.54627765 7.15159598 -13.2132714 9.75074383 -17.8828125 15.1953125 C-18.25148438 15.79085937 -18.62015625 16.38640625 -19 17 C-19.99 16.01 -20.98 15.02 -22 14 C-20.66445565 10.02119078 -19.01381696 7.65301487 -16 4.75 C-14.948125 3.72132813 -14.948125 3.72132813 -13.875 2.671875 C-9.80709884 -0.95533687 -5.21619578 -0.60616342 0 0 Z " fill="#8CC4E2" transform="translate(90,155)"/>
<path d="M0 0 C10.88328558 2.81464282 22.78011638 10.21408539 31 18 C31 18.66 31 19.32 31 20 C25.56735546 18.36844279 20.59576552 16.01528293 15.5 13.5625 C14.67113281 13.16740234 13.84226563 12.77230469 12.98828125 12.36523438 C11.38193467 11.59781443 9.77774375 10.8258616 8.17602539 10.04882812 C6.28296402 9.13638656 4.37506146 8.25486244 2.46484375 7.37890625 C0 6 0 6 -0.9375 3.375 C-0.958125 2.59125 -0.97875 1.8075 -1 1 C-0.67 0.67 -0.34 0.34 0 0 Z " fill="#92C1DD" transform="translate(200,58)"/>
<path d="M0 0 C4.42323682 0.58265272 7.5155864 2.26766211 11.3125 4.5625 C12.38113281 5.20316406 13.44976562 5.84382812 14.55078125 6.50390625 C15.35902344 6.99761719 16.16726562 7.49132812 17 8 C15.55746343 11.36591866 13.66735273 13.51047079 11 16 C9.4122595 15.09098826 7.82998803 14.17242076 6.25 13.25 C5.36828125 12.73953125 4.4865625 12.2290625 3.578125 11.703125 C1.03462657 10.02287452 -0.92902925 8.22580968 -3 6 C-2.01 4.02 -1.02 2.04 0 0 Z " fill="#1E4467" transform="translate(137,163)"/>
<path d="M0 0 C2.12546959 0.81127079 4.25036195 1.62405398 6.375 2.4375 C8.15003906 3.11619141 8.15003906 3.11619141 9.9609375 3.80859375 C13 5 13 5 15 6 C14.1875 9.4375 14.1875 9.4375 13 13 C10 14 10 14 6.86328125 12.56640625 C5.6739872 11.90864027 4.49053629 11.24022185 3.3125 10.5625 C2.70599609 10.22412109 2.09949219 9.88574219 1.47460938 9.53710938 C-0.0220025 8.70042085 -1.51169189 7.85137169 -3 7 C-1.125 1.125 -1.125 1.125 0 0 Z " fill="#19415C" transform="translate(163,104)"/>
<path d="M0 0 C13.2 0 26.4 0 40 0 C40 0.66 40 1.32 40 2 C40.66 2.33 41.32 2.66 42 3 C40.69289062 2.84660156 39.38578125 2.69320313 38.0390625 2.53515625 C30.50275495 1.78152549 22.94132719 1.64333502 15.375 1.4375 C13.87889688 1.39420285 12.38280299 1.35058544 10.88671875 1.30664062 C7.25791139 1.20073818 3.62899865 1.0991582 0 1 C0 0.67 0 0.34 0 0 Z " fill="#AAB7C2" transform="translate(146,0)"/>
<path d="M0 0 C0.33 0 0.66 0 1 0 C1.25632348 4.35301015 1.47520683 8.70713804 1.6875 13.0625 C1.76033203 14.29162109 1.83316406 15.52074219 1.90820312 16.78710938 C2.20959889 23.36462873 2.33544304 28.2294263 -1 34 C-2.13328318 30.60015047 -1.69517163 28.46593156 -1 25 C-0.8577379 23.01661939 -0.754929 21.03016487 -0.68359375 19.04296875 C-0.62075195 17.37524414 -0.62075195 17.37524414 -0.55664062 15.67382812 C-0.51732422 14.52333984 -0.47800781 13.37285156 -0.4375 12.1875 C-0.39431641 11.01767578 -0.35113281 9.84785156 -0.30664062 8.64257812 C-0.20081721 5.76182969 -0.09873175 2.88099877 0 0 Z " fill="#415B6B" transform="translate(295,153)"/>
<path d="M0 0 C0.33 0.99 0.66 1.98 1 3 C0.53625977 3.43344727 0.07251953 3.86689453 -0.40527344 4.31347656 C-2.52084781 6.29160732 -4.63543195 8.27079357 -6.75 10.25 C-7.84441406 11.27287109 -7.84441406 11.27287109 -8.9609375 12.31640625 C-9.66992188 12.98027344 -10.37890625 13.64414063 -11.109375 14.328125 C-11.75874023 14.9355957 -12.40810547 15.54306641 -13.07714844 16.16894531 C-15.08480025 18.08075189 -17.04736244 20.03216682 -19 22 C-19.66 21.67 -20.32 21.34 -21 21 C-14.07 14.07 -7.14 7.14 0 0 Z " fill="#8CBCD4" transform="translate(112,94)"/>
<path d="M0 0 C0 3 0 3 -1.3203125 4.578125 C-1.91585937 5.12984375 -2.51140625 5.6815625 -3.125 6.25 C-5.62007165 8.62937276 -7.92955844 11.02895749 -10.125 13.6875 C-12.49653678 16.5180439 -15.01343598 18.80399704 -18 21 C-18.66 20.67 -19.32 20.34 -20 20 C-13.4 13.4 -6.8 6.8 0 0 Z " fill="#92C0D2" transform="translate(238,201)"/>
<path d="M0 0 C0.75 1.625 0.75 1.625 1 4 C-2.01261261 9.27207207 -2.01261261 9.27207207 -4.60546875 11.18359375 C-6.84657776 14.10268532 -6.49629975 17.45671054 -6.5625 21 C-6.74550069 28.61825104 -6.74550069 28.61825104 -9 32 C-9.00633688 28.83156245 -8.94618133 25.66756932 -8.875 22.5 C-8.87757813 21.613125 -8.88015625 20.72625 -8.8828125 19.8125 C-8.70465771 13.75523705 -7.48064527 10.35052656 -3.47705078 5.77148438 C-1.95267664 3.94324326 -0.9829574 2.15953663 0 0 Z " fill="#E2FAFD" transform="translate(278,139)"/>
<path d="M0 0 C0.55171875 0.22558594 1.1034375 0.45117188 1.671875 0.68359375 C0.359375 2.18359375 0.359375 2.18359375 -1.328125 3.68359375 C-2.318125 3.68359375 -3.308125 3.68359375 -4.328125 3.68359375 C-5.77847104 4.98815877 -5.77847104 4.98815877 -7.015625 6.68359375 C-8.1603125 8.16859375 -8.1603125 8.16859375 -9.328125 9.68359375 C-11.328125 8.68359375 -11.328125 8.68359375 -12.328125 5.68359375 C-10.75465324 4.64762475 -9.16890954 3.63027643 -7.578125 2.62109375 C-6.69640625 2.05261719 -5.8146875 1.48414063 -4.90625 0.8984375 C-2.328125 -0.31640625 -2.328125 -0.31640625 0 0 Z " fill="#1C4052" transform="translate(170.328125,197.31640625)"/>
<path d="M0 0 C5.29877676 -0.50464541 7.90716575 0.63478073 12 4 C14.92675987 7.70722917 15.3259948 10.32740781 15 15 C14.34 15 13.68 15 13 15 C12.34 11.7 11.68 8.4 11 5 C10.34 5 9.68 5 9 5 C9 4.34 9 3.68 9 3 C6.03 2.67 3.06 2.34 0 2 C0 1.34 0 0.68 0 0 Z " fill="#2F4C61" transform="translate(302,129)"/>
<path d="M0 0 C0.33 0 0.66 0 1 0 C1.103125 1.03125 1.20625 2.0625 1.3125 3.125 C1.99127797 6.95083945 3.11158795 9.63370025 5 13 C3.69593116 15.01920337 2.36176581 17.01924973 1 19 C0.67 19 0.34 19 0 19 C0 12.73 0 6.46 0 0 Z " fill="#85BBD4" transform="translate(50,151)"/>
<path d="M0 0 C0.33 0 0.66 0 1 0 C1.31607924 5.2679873 0.99658584 8.59876455 -2 13 C-4.54381842 15.19260089 -7.2111706 17.131948 -10 19 C-10 18.01 -10 17.02 -10 16 C-8.52034582 14.78339545 -7.03776381 13.56990058 -5.53125 12.38671875 C-1.91898183 9.11540447 -0.68854139 4.68208144 0 0 Z " fill="#0B3957" transform="translate(64,185)"/>
<path d="M0 0 C5.5952381 0.5952381 5.5952381 0.5952381 8 3 C6.824375 3.1546875 6.824375 3.1546875 5.625 3.3125 C2.66954819 3.77595022 2.66954819 3.77595022 1 7 C1 7.66 1 8.32 1 9 C0.01 8.67 -0.98 8.34 -2 8 C-1.125 1.125 -1.125 1.125 0 0 Z " fill="#234B62" transform="translate(156,120)"/>
<path d="M0 0 C0.99 0 1.98 0 3 0 C2.690625 0.598125 2.38125 1.19625 2.0625 1.8125 C0.89790296 4.08956772 0.89790296 4.08956772 0 7 C-0.66 7 -1.32 7 -2 7 C-2.28875 7.763125 -2.5775 8.52625 -2.875 9.3125 C-4 12 -4 12 -6 15 C-5.54979057 9.14727744 -2.96160773 4.91779881 0 0 Z " fill="#153447" transform="translate(148,214)"/>
<path d="M0 0 C2.475 0.99 2.475 0.99 5 2 C4.34 2.66 3.68 3.32 3 4 C3.01748219 6.91952568 3.13944633 9.72297885 3.375 12.625 C3.46007813 13.82769531 3.46007813 13.82769531 3.546875 15.0546875 C3.68847982 17.03715498 3.84302259 19.01869051 4 21 C2.04279623 18.06419434 1.69804825 17.10177164 1.3671875 13.76953125 C1.24150391 12.56586914 1.24150391 12.56586914 1.11328125 11.33789062 C1.03464844 10.50451172 0.95601562 9.67113281 0.875 8.8125 C0.78863281 7.96751953 0.70226563 7.12253906 0.61328125 6.25195312 C0.4014261 4.16871077 0.19973223 2.08443958 0 0 Z " fill="#8ABCD3" transform="translate(50,172)"/>
<path d="M0 0 C0.33 0.99 0.66 1.98 1 3 C-0.18222641 4.51062263 -1.37690435 6.0152258 -2.6640625 7.4375 C-4.1890935 9.12006766 -4.1890935 9.12006766 -5.625 11.875 C-6.07875 12.57625 -6.5325 13.2775 -7 14 C-7.99 14 -8.98 14 -10 14 C-8.52208672 11.85329364 -7.0427346 9.70760477 -5.5625 7.5625 C-5.14162109 6.95083984 -4.72074219 6.33917969 -4.28710938 5.70898438 C-1.11328125 1.11328125 -1.11328125 1.11328125 0 0 Z " fill="#92C2D9" transform="translate(75,89)"/>
<path d="M0 0 C5.66104589 0.49658297 9.87674471 1.54510684 15 4 C15 4.66 15 5.32 15 6 C11.73479256 5.19924675 8.49253933 4.32533815 5.25 3.4375 C3.77273437 3.03337891 3.77273437 3.03337891 2.265625 2.62109375 C1.51796875 2.41613281 0.7703125 2.21117187 0 2 C0 1.34 0 0.68 0 0 Z " fill="#27495F" transform="translate(196,26)"/>
<path d="M0 0 C1.37617356 4.39392559 0.56943301 7.75170719 -1 12 C-2.625 14 -2.625 14 -4 15 C-5 13 -5 13 -4.00390625 9.9609375 C-3.52824219 8.77757813 -3.05257812 7.59421875 -2.5625 6.375 C-2.08941406 5.18648438 -1.61632812 3.99796875 -1.12890625 2.7734375 C-0.75636719 1.85820313 -0.38382813 0.94296875 0 0 Z " fill="#C8E3EB" transform="translate(141,117)"/>
<path d="M0 0 C0.99 0.66 1.98 1.32 3 2 C1.02 3.98 -0.96 5.96 -3 8 C-3.99 7.67 -4.98 7.34 -6 7 C-4.60667426 3.63279613 -3.0210714 2.0140476 0 0 Z " fill="#265170" transform="translate(264,274)"/>
<path d="M0 0 C0 0.66 0 1.32 0 2 C-10.44674125 7.34484436 -10.44674125 7.34484436 -15 6 C-12.87717331 4.99539469 -10.75166979 3.99644398 -8.625 3 C-7.44164062 2.443125 -6.25828125 1.88625 -5.0390625 1.3125 C-2 0 -2 0 0 0 Z " fill="#C9DCE5" transform="translate(231,301)"/>
<path d="M0 0 C0.45890625 0.40992188 0.9178125 0.81984375 1.390625 1.2421875 C2.00421875 1.78101563 2.6178125 2.31984375 3.25 2.875 C3.85328125 3.40867187 4.4565625 3.94234375 5.078125 4.4921875 C6.9526712 6.07230708 6.9526712 6.07230708 9.1875 7.0625 C11 8 11 8 11.75 10.125 C11.87375 11.053125 11.87375 11.053125 12 12 C7.35057557 9.12178487 3.69590939 6.04790076 0 2 C0 1.34 0 0.68 0 0 Z " fill="#1B394B" transform="translate(50,273)"/>
<path d="M0 0 C3.46941546 0.45822468 6.67395049 0.89131683 10 2 C10 2.66 10 3.32 10 4 C10.66 4 11.32 4 12 4 C12 4.66 12 5.32 12 6 C7.76570244 4.68938409 3.92592596 3.05643741 0 1 C0 0.67 0 0.34 0 0 Z " fill="#234859" transform="translate(88,301)"/>
<path d="M0 0 C0.33 0 0.66 0 1 0 C1.35338623 2.96844435 1.5417682 5.15598218 -0.11328125 7.734375 C-1.35503168 9.20348819 -2.67337918 10.60704814 -4 12 C-4.66 11.67 -5.32 11.34 -6 11 C-4.02 7.37 -2.04 3.74 0 0 Z " fill="#CDE4ED" transform="translate(301,229)"/>
<path d="M0 0 C0.66 0.66 1.32 1.32 2 2 C1.72265625 3.828125 1.72265625 3.828125 1 6 C0.62681641 7.16789063 0.62681641 7.16789063 0.24609375 8.359375 C-0.02074219 9.14828125 -0.28757812 9.9371875 -0.5625 10.75 C-0.96662109 11.94882813 -0.96662109 11.94882813 -1.37890625 13.171875 C-1.58386719 13.77515625 -1.78882813 14.3784375 -2 15 C-2.66 14.67 -3.32 14.34 -4 14 C-3.52188823 12.22888156 -3.0424722 10.45811517 -2.5625 8.6875 C-2.29566406 7.70136719 -2.02882813 6.71523437 -1.75390625 5.69921875 C-1.21920575 3.78482474 -0.62855462 1.88566385 0 0 Z " fill="#BFD6E0" transform="translate(311,203)"/>
<path d="M0 0 C1.4727491 3.82914766 0.50018704 6.28901101 -1 10 C-1.99 11.485 -1.99 11.485 -3 13 C-3.66 13 -4.32 13 -5 13 C-3.58192622 8.52761347 -1.88695626 4.28853694 0 0 Z " fill="#BBD9E2" transform="translate(129,147)"/>
<path d="M0 0 C0.66 0.66 1.32 1.32 2 2 C1.875 5 1.875 5 1 8 C-0.98 8.99 -0.98 8.99 -3 10 C-2.01 6.7 -1.02 3.4 0 0 Z " fill="#2E5064" transform="translate(289,199)"/>
<path d="M0 0 C1.485 0.99 1.485 0.99 3 2 C3 2.66 3 3.32 3 4 C3.99 4.33 4.98 4.66 6 5 C7.6875 7.5625 7.6875 7.5625 9 10 C8.01 10.495 8.01 10.495 7 11 C5.82439821 9.73742767 4.65977135 8.46462916 3.5 7.1875 C2.8503125 6.47980469 2.200625 5.77210937 1.53125 5.04296875 C0 3 0 3 0 0 Z " fill="#14384C" transform="translate(259,61)"/>
<path d="M0 0 C0.66 0.99 1.32 1.98 2 3 C0.68 5.64 -0.64 8.28 -2 11 C-2.66 10.67 -3.32 10.34 -4 10 C-2.8905928 6.51329166 -1.73662334 3.22515763 0 0 Z " fill="#26465D" transform="translate(137,234)"/>
<path d="M0 0 C2.0625 0.4375 2.0625 0.4375 4 1 C2.92598892 3.91517292 2.22189824 5.77810176 0 8 C-0.38063221 5.6739143 -0.71269945 3.33944736 -1 1 C-0.67 0.67 -0.34 0.34 0 0 Z " fill="#224D6B" transform="translate(39,86)"/>
<path d="M0 0 C0.66 0 1.32 0 2 0 C2.28875 0.61875 2.5775 1.2375 2.875 1.875 C3.93720042 4.13325765 3.93720042 4.13325765 6 6 C6.625 8.625 6.625 8.625 7 11 C3.17330957 7.57611908 1.27721526 4.99275057 0 0 Z " fill="#16374A" transform="translate(19,233)"/>
<path d="M0 0 C0.66 0.33 1.32 0.66 2 1 C-0.64 3.64 -3.28 6.28 -6 9 C-6.66 8.67 -7.32 8.34 -8 8 C-6.74157232 4.22471696 -5.37506571 3.89332955 -2 2 C-1.34 1.34 -0.68 0.68 0 0 Z " fill="#90BBD7" transform="translate(218,208)"/>
<path d="M0 0 C0 0.66 0 1.32 0 2 C-6.45 6.09326923 -6.45 6.09326923 -9.234375 5.62109375 C-9.81703125 5.41613281 -10.3996875 5.21117187 -11 5 C-9.54462432 4.16151196 -8.08559627 3.32936066 -6.625 2.5 C-5.81289062 2.0359375 -5.00078125 1.571875 -4.1640625 1.09375 C-2 0 -2 0 0 0 Z " fill="#94C3DA" transform="translate(117,58)"/>
<path d="M0 0 C-1.97420135 2.52259061 -2.96745642 2.9929808 -6.1875 3.6875 C-7.5796875 3.8421875 -7.5796875 3.8421875 -9 4 C-8 1 -8 1 -6.1875 -0.25 C-3.66056586 -1.11637742 -2.47778006 -0.88492145 0 0 Z " fill="#163548" transform="translate(172,198)"/>
<path d="M0 0 C5.75 1.75 5.75 1.75 8 4 C7.0925 3.79375 6.185 3.5875 5.25 3.375 C1.88972103 2.9872755 0.75924185 3.19588033 -2 5 C-1.34 3.35 -0.68 1.7 0 0 Z " fill="#2B5068" transform="translate(147,141)"/>
<path d="M0 0 C0.75 1.625 0.75 1.625 1 4 C-2.17808219 9.5890411 -2.17808219 9.5890411 -5 11 C-4.32902328 6.80639551 -2.1441606 3.59665648 0 0 Z " fill="#D1E1E9" transform="translate(278,139)"/>
<path d="M0 0 C1.875 0.25 1.875 0.25 4 1 C5.125 2.875 5.125 2.875 6 5 C6.99 6.485 6.99 6.485 8 8 C7.01 8.495 7.01 8.495 6 9 C4.99406757 7.8803014 3.9954151 6.7540588 3 5.625 C2.443125 4.99851562 1.88625 4.37203125 1.3125 3.7265625 C0 2 0 2 0 0 Z " fill="#173B4C" transform="translate(38,261)"/>
<path d="M0 0 C0.66 0.99 1.32 1.98 2 3 C0.68 5.31 -0.64 7.62 -2 10 C-2.66 10 -3.32 10 -4 10 C-2.8905928 6.51329166 -1.73662334 3.22515763 0 0 Z " fill="#DBF0F5" transform="translate(150,97)"/>
<path d="M0 0 C0.33 0.99 0.66 1.98 1 3 C-0.9375 6.1875 -0.9375 6.1875 -3 9 C-3.99 8.67 -4.98 8.34 -6 8 C-4.02 5.36 -2.04 2.72 0 0 Z " fill="#2D5066" transform="translate(272,235)"/>
<path d="M0 0 C2.76 5.52 2.76 5.52 3 8 C2.01 8.99 1.02 9.98 0 11 C0 7.37 0 3.74 0 0 Z " fill="#82B0C8" transform="translate(50,159)"/>
<path d="M0 0 C0.33 1.32 0.66 2.64 1 4 C-1.475 5.485 -1.475 5.485 -4 7 C-2.92598892 4.08482708 -2.22189824 2.22189824 0 0 Z " fill="#DAECF1" transform="translate(153,173)"/>
<path d="M0 0 C0 4.38968456 -2.12805101 5.76905739 -5 9 C-5.33 8.34 -5.66 7.68 -6 7 C-4.02 4.69 -2.04 2.38 0 0 Z " fill="#7BB3CF" transform="translate(239,119)"/>
<path d="M0 0 C0.66 0.33 1.32 0.66 2 1 C1.34 3.31 0.68 5.62 0 8 C-0.66 7.67 -1.32 7.34 -2 7 C-1.125 2.25 -1.125 2.25 0 0 Z " fill="#1A4C6C" transform="translate(140,114)"/>
<path d="M0 0 C2.31 0.33 4.62 0.66 7 1 C7 1.99 7 2.98 7 4 C4.69 3.34 2.38 2.68 0 2 C0 1.34 0 0.68 0 0 Z " fill="#2C4B5E" transform="translate(241,96)"/>
</svg>
